<?xml version="1.0" encoding="UTF-8" standalone="no"?>
<!-- Created with Inkscape (http://www.inkscape.org/) -->

<svg
   width="228.07085mm"
   height="121.97293mm"
   viewBox="0 0 228.07084 121.97293"
   version="1.1"
   id="svg1"
   xml:space="preserve"
   inkscape:version="1.3 (0e150ed6c4, 2023-07-21)"
   sodipodi:docname="BEEcon_logo_white.svg"
   inkscape:export-filename="studio.png"
   inkscape:export-xdpi="96"
   inkscape:export-ydpi="96"
   xmlns:inkscape="http://www.inkscape.org/namespaces/inkscape"
   xmlns:sodipodi="http://sodipodi.sourceforge.net/DTD/sodipodi-0.dtd"
   xmlns="http://www.w3.org/2000/svg"
   xmlns:svg="http://www.w3.org/2000/svg"><sodipodi:namedview
     id="namedview1"
     pagecolor="#ffffff"
     bordercolor="#000000"
     borderopacity="0.25"
     inkscape:showpageshadow="2"
     inkscape:pageopacity="0.0"
     inkscape:pagecheckerboard="true"
     inkscape:deskcolor="#d1d1d1"
     inkscape:document-units="mm"
     inkscape:zoom="1.4142136"
     inkscape:cx="468.81178"
     inkscape:cy="196.92923"
     inkscape:window-width="1920"
     inkscape:window-height="1094"
     inkscape:window-x="-11"
     inkscape:window-y="-11"
     inkscape:window-maximized="1"
     inkscape:current-layer="layer1"
     inkscape:export-bgcolor="#ffffff00" /><defs
     id="defs1" /><g
     inkscape:groupmode="layer"
     id="layer2"
     inkscape:label="Livello 2" /><g
     inkscape:label="Livello 1"
     inkscape:groupmode="layer"
     id="layer1"
     transform="translate(0.26458326)"><path
       d="M 66.22041,69.11893 C 64.339014,69.942177 61.953419,69.819262 59.617108,68.866846 58.525385,68.421857 57.442244,67.795508 56.428025,67.002069 55.438248,66.225845 54.545183,65.32125 53.783653,64.309707 53.665116,64.149242 53.40891,63.784211 53.025255,63.094525 52.366079,61.940769 51.582729,60.343477 50.790443,58.54247 L 50.494609,57.853113 C 50.223653,57.221467 49.960041,56.5896 49.719444,55.98243 47.447932,50.301228 45.985101,44.918223 45.652626,41.064992 c -0.022,-0.221164 -0.03708,-0.439493 -0.04776,-0.648772 -0.07704,-1.344863 -0.0037,-2.476744 0.224614,-3.361501 0.006,-0.01371 0.01496,-0.02623 0.02034,-0.03936 l 10e-4,-0.0036 c 0.120844,-0.492114 0.498642,-1.223138 0.498642,-1.223138 10e-4,-0.0036 10e-4,-0.0036 10e-4,-0.0036 0.263603,-0.381456 0.590323,-0.612942 1.038433,-0.738466 0.165809,-0.04457 1.122024,-0.199332 3.467722,1.36928 1.690146,1.130287 3.222068,2.207386 4.655515,3.28064 0.208047,0.156602 0.413323,0.312086 0.618325,0.468267 9.977359,7.620341 14.753388,14.939689 14.190063,21.74447 -0.300103,3.675242 -1.720645,6.168425 -4.100716,7.20954 z m -24.562148,1.813331 c -3.584734,-0.01148 -7.331344,-0.765909 -10.900488,-2.220826 l -0.03489,-0.01256 -0.03473,-0.01256 c -3.56894,-1.455278 -6.775201,-3.5352 -9.346361,-6.033131 0.08335,-1.580405 0.38743,-3.191062 0.89685,-4.774484 2.865962,2.678605 6.343356,4.88923 10.21821,6.468794 l 0.03477,0.01256 0.03486,0.01256 c 3.87493,1.5796 7.906705,2.430049 11.828074,2.518251 -0.742312,1.488473 -1.65099,2.852669 -2.69613,4.041011 z m -6.395974,4.446495 c -0.988574,0.370731 -1.994634,0.65768 -2.969441,0.937209 -1.848357,0.524487 -3.745414,1.069456 -5.557989,2.165216 -0.530157,-2.050765 -1.505156,-3.766513 -2.460014,-5.433717 -0.501977,-0.881525 -1.02092,-1.790142 -1.468363,-2.746256 -0.260271,-0.550633 -0.485167,-1.119126 -0.679295,-1.694443 2.13859,1.524485 4.506627,2.830272 7.021218,3.855334 l 0.03472,0.01256 0.03489,0.01256 c 2.514098,1.024866 5.120233,1.746777 7.715146,2.151839 -0.540831,0.275801 -1.099091,0.525049 -1.670271,0.73675 z M 24.167648,47.12107 23.47417,47.40716 c -1.825463,0.733902 -3.502051,1.328408 -4.780191,1.692432 -0.756551,0.224889 -1.19459,0.306916 -1.391879,0.338637 -1.251476,0.19094 -2.522587,0.21333 -3.772675,0.07648 -1.280228,-0.141875 -2.492208,-0.451168 -3.5845377,-0.896458 -2.33589,-0.952204 -4.127549,-2.532129 -4.897639,-4.436247 -0.973297,-2.408093 -0.24631,-5.184006 2.108356,-8.021713 4.3550997,-5.259085 12.8870017,-7.153533 25.3482567,-5.62688 0.255446,0.03184 0.510833,0.06371 0.769481,0.09749 1.77512,0.234641 3.623453,0.535604 5.622358,0.909073 2.773317,0.518206 3.349016,1.297467 3.436917,1.445404 0.232303,0.402888 0.304078,0.796821 0.225945,1.253881 0,0 0,0 -0.001,0.0036 0,0 -0.240666,0.786931 -0.498641,1.223129 l -10e-4,0.0036 c -0.0059,0.01306 -0.0083,0.02823 -0.01399,0.04204 -0.455193,0.792279 -1.19448,1.652693 -2.189579,2.560502 -0.154024,0.142148 -0.317509,0.287679 -0.48791,0.430393 -2.931227,2.522806 -7.74072,5.348948 -13.336197,7.823202 -0.597136,0.265678 -1.226946,0.533347 -1.862566,0.795436 z m 22.262369,11.602815 0.113289,0.262399 0.0036,0.0036 c -0.109862,1.292856 -0.330248,2.569724 -0.657029,3.814529 -3.863318,0.131543 -7.92319,-0.622288 -11.821639,-2.21144 l -0.03495,-0.01256 -0.03475,-0.01256 c -3.899086,-1.589703 -7.328382,-3.888818 -9.99879,-6.683762 0.636315,-1.118617 1.37169,-2.18554 2.196539,-3.18696 l 0.0036,-0.0036 0.264515,-0.108383 c 2.679198,2.301546 5.866125,4.242078 9.301252,5.642388 l 0.03475,0.01256 0.03497,0.01256 c 3.434919,1.400272 7.070512,2.240915 10.594737,2.468156 z M 44.777003,54.45659 c -2.480226,-0.334122 -4.993784,-0.998146 -7.401344,-1.979592 l -0.03488,-0.01256 -0.03473,-0.01256 c -2.408021,-0.981711 -4.669388,-2.264169 -6.675953,-3.75903 3.402281,-1.653882 7.719136,-4.028142 11.005251,-6.762868 0.437512,4.252641 1.864211,8.968234 3.141041,12.529526 z m 29.613544,7.789349 c 0.675321,-8.201674 -4.523908,-16.634262 -15.454008,-25.07218 1.101639,-1.129005 1.995576,-2.466936 2.617427,-3.992418 1.379345,-3.38374 1.148602,-7.055102 -0.327828,-10.300831 3.350076,-2.872436 7.09834,-3.655938 11.150901,-2.316156 1.166058,0.383333 2.425362,-0.249739 2.809859,-1.41857 0.386847,-1.16463 -0.248421,-2.416751 -1.415106,-2.808439 C 67.571655,14.290737 62.473619,16.17471 58.774015,19.116838 57.179976,17.317362 55.116797,15.823627 52.681556,14.830911 50.245975,13.83806 47.726627,13.463768 45.328901,13.635979 44.74096,8.9460451 42.412499,4.0347061 36.548469,1.1634111 c -1.107696,-0.535444 -2.437324,-0.08427 -2.975097,1.018801 -0.542437,1.104445 -0.08438,2.437629 1.017127,2.978613 3.834413,1.875312 5.966969,5.0560949 6.354219,9.4520359 -3.325372,1.288288 -6.056439,3.752296 -7.435799,7.136032 -0.621863,1.525473 -0.918159,3.107035 -0.920015,4.68435 -13.714056,-1.608148 -23.3270267,0.786332 -28.5780247,7.122759 -3.32000397,4.00695 -4.29618597,8.327937 -2.74447,12.156998 1.194938,2.955084 3.765381,5.317186 7.111204,6.681092 1.439342,0.586745 3.0225297,0.987679 4.7009137,1.174894 1.604609,0.181325 3.232556,0.147882 4.839289,-0.09834 0.5296,-0.08101 1.171888,-0.231443 1.913984,-0.450138 -0.04505,0.09056 -0.09438,0.1826 -0.139059,0.272493 -1.599657,3.265697 -2.44932,6.784682 -2.458582,10.178313 -0.0088,3.008957 0.623409,5.89037 1.876505,8.565011 0.515651,1.103318 1.080501,2.086318 1.622413,3.036562 1.103439,1.931879 2.05815,3.599024 2.271433,5.640813 0.108404,1.109984 0.80355,2.058147 1.812078,2.473298 1.011646,0.407851 2.171604,0.216385 3.02497,-0.501497 1.579938,-1.310796 3.427609,-1.83556 5.56733,-2.445383 1.051936,-0.300529 2.143176,-0.608429 3.2828,-1.036984 2.766145,-1.036215 5.232272,-2.654602 7.329996,-4.81203 2.365767,-2.433015 4.218504,-5.543096 5.357619,-8.996529 0.02991,-0.0958 0.06022,-0.195687 0.09172,-0.291804 0.377504,0.675083 0.73151,1.231656 1.05389,1.659973 0.976626,1.299307 2.117315,2.461367 3.391049,3.453384 1.331011,1.03957 2.74336,1.859765 4.182365,2.446368 3.346367,1.36412 6.8353,1.472069 9.755492,0.194546 3.786439,-1.652994 6.109114,-5.42508 6.536945,-10.611012"
       style="opacity:1;fill:#f7f7f7;fill-opacity:1;fill-rule:nonzero;stroke:none;stroke-width:0.00747101;image-rendering:auto"
       id="path12" /><g
       id="text2"
       style="font-size:56.4444px;fill:#161613;stroke-width:0.264583"
       aria-label="BEEcon"><path
         style="opacity:0.9;fill:#d1a900;fill-opacity:0.647173"
         d="M 40.202506,99.366211 V 59.23777 h 14.055979 q 7.303597,0 11.079419,2.811195 3.775821,2.783635 3.775821,8.185541 0,2.948999 -1.515841,5.20898 -1.51584,2.232421 -4.216793,3.279729 3.086803,0.771701 4.850691,3.114364 1.791448,2.342663 1.791448,5.732634 0,5.787756 -3.69314,8.764316 -3.693139,2.97656 -10.528203,3.031682 z M 48.470729,81.8927 v 10.831372 h 7.083111 q 2.921439,0 4.547523,-1.378037 1.653644,-1.405598 1.653644,-3.858504 0,-5.512149 -5.705074,-5.594831 z m 0,-5.842877 h 6.118485 q 6.256289,-0.110243 6.256289,-4.988495 0,-2.728513 -1.598524,-3.913625 -1.570962,-1.212673 -4.988494,-1.212673 h -5.787756 z m 51.896881,5.925559 H 84.492618 v 10.74869 h 18.631062 v 6.642139 H 76.224395 V 59.23777 h 26.844165 v 6.69726 H 84.492618 v 9.563578 h 15.874992 z m 31.74997,0 h -15.87499 v 10.74869 h 18.63107 v 6.642139 H 107.97437 V 59.23777 h 26.84417 v 6.69726 h -18.57595 v 9.563578 h 15.87499 z"
         id="path1" /><path
         style="fill:#f7f7f7"
         d="m 151.60302,93.495773 q 2.20486,0 3.5829,-1.212673 1.37804,-1.212673 1.43316,-3.224607 h 7.46896 q -0.0276,3.031682 -1.65365,5.56727 -1.62608,2.508028 -4.46484,3.913626 -2.81119,1.378037 -6.22872,1.378037 -6.3941,0 -10.08724,-4.051429 -3.69314,-4.07899 -3.69314,-11.244783 V 84.09756 q 0,-6.890186 3.66558,-10.996737 3.66558,-4.10655 10.05967,-4.10655 5.59483,0 8.95725,3.197046 3.38997,3.169485 3.44509,8.461148 h -7.46896 q -0.0551,-2.315103 -1.43316,-3.748261 -1.37804,-1.46072 -3.63802,-1.46072 -2.78363,0 -4.21679,2.039495 -1.4056,2.011935 -1.4056,6.559457 v 0.826822 q 0,4.602644 1.4056,6.614579 1.40559,2.011934 4.27191,2.011934 z m 15.79231,-9.315531 q 0,-4.43728 1.70877,-7.909933 1.70876,-3.472654 4.90581,-5.374345 3.2246,-1.901691 7.46896,-1.901691 6.0358,0 9.83918,3.693139 3.83095,3.69314 4.27192,10.03211 l 0.0551,2.039495 q 0,6.862625 -3.83094,11.024297 -3.83095,4.134112 -10.28016,4.134112 -6.44921,0 -10.30772,-4.134112 -3.83094,-4.134111 -3.83094,-11.244783 z m 7.96505,0.578775 q 0,4.244355 1.59853,6.504336 1.59852,2.23242 4.57508,2.23242 2.89388,0 4.51996,-2.20486 1.62609,-2.23242 1.62609,-7.110671 0,-4.161672 -1.62609,-6.449214 -1.62608,-2.287542 -4.57508,-2.287542 -2.92144,0 -4.51996,2.287542 -1.59853,2.259981 -1.59853,7.027989 z m 32.52168,-15.21353 0.24805,3.445093 q 3.19705,-3.996307 8.57139,-3.996307 4.74045,0 7.05555,2.783635 2.3151,2.783635 2.37023,8.323344 v 19.264959 h -7.96506 V 80.294177 q 0,-2.535588 -1.10243,-3.665579 -1.10243,-1.157551 -3.66558,-1.157551 -3.36241,0 -5.04361,2.866317 v 21.028847 h -7.96506 V 69.545487 Z"
         id="path2" /></g><path
       style="font-weight:bold;font-size:19.5593px;font-family:Roboto;-inkscape-font-specification:'Roboto Bold';fill:#f7f7f7;stroke-width:0.203743"
       d="m 81.38372,114.64764 h -2.282555 v 5.09038 h -2.865132 v -13.90544 h 5.166788 q 2.464013,0 3.801075,1.0983 1.337061,1.0983 1.337061,3.1039 0,1.42301 -0.620778,2.37805 -0.611228,0.9455 -1.862336,1.50897 l 3.008388,5.68252 v 0.1337 H 83.99099 Z m -2.282555,-2.32076 h 2.311206 q 1.0792,0 1.671327,-0.54437 0.592128,-0.55393 0.592128,-1.51852 0,-0.9837 -0.563476,-1.54717 -0.553926,-0.56348 -1.709529,-0.56348 h -2.301656 z m 17.983477,1.38481 h -5.501053 v 3.72468 h 6.456097 v 2.30165 h -9.321229 v -13.90544 h 9.302128 v 2.32076 h -6.436996 v 3.314 h 5.501053 z m 10.486378,3.1612 h -5.02353 l -0.95504,2.86513 h -3.046591 l 5.176341,-13.90544 h 2.65502 l 5.20499,13.90544 h -3.04659 z m -4.24994,-2.32076 h 3.47636 l -1.74773,-5.20499 z m 9.55999,5.18589 v -13.90544 h 4.27859 q 1.83369,0 3.27581,0.83089 1.45166,0.82134 2.26345,2.34941 0.81179,1.51852 0.81179,3.45726 v 0.63988 q 0,1.93874 -0.80224,3.44771 -0.79269,1.50896 -2.24435,2.33985 -1.45167,0.83089 -3.2758,0.84044 z m 2.86513,-11.58468 v 9.28303 h 1.38481 q 1.68088,0 2.56907,-1.0983 0.88819,-1.09831 0.90729,-3.1421 v -0.73538 q 0,-2.1202 -0.87864,-3.20895 -0.87864,-1.0983 -2.56907,-1.0983 z m 12.89309,11.58468 h -2.86513 v -13.90544 h 2.86513 z m 13.96274,0 h -2.86513 l -5.57745,-9.14932 v 9.14932 h -2.86514 v -13.90544 h 2.86514 l 5.587,9.16842 v -9.16842 h 2.85558 z m 13.50433,-1.75728 q -0.77359,0.92639 -2.18705,1.44212 -1.41347,0.50617 -3.13255,0.50617 -1.80503,0 -3.17074,-0.78314 -1.35617,-0.79268 -2.1011,-2.2921 -0.73538,-1.49942 -0.75448,-3.52411 v -0.9455 q 0,-2.08199 0.69718,-3.60051 0.70673,-1.52807 2.02469,-2.33031 1.32751,-0.81179 3.10389,-0.81179 2.47357,0 3.86793,1.18426 1.39436,1.1747 1.65223,3.42861 h -2.78873 q -0.19101,-1.19381 -0.84999,-1.74773 -0.64943,-0.55393 -1.79548,-0.55393 -1.46122,0 -2.22526,1.0983 -0.76403,1.0983 -0.77358,3.26625 v 0.88819 q 0,2.18705 0.83089,3.30445 0.83089,1.1174 2.43536,1.1174 1.61402,0 2.30166,-0.68763 v -2.39716 h -2.60727 v -2.11064 h 5.4724 z m 18.19359,0 q -0.77359,0.92639 -2.18706,1.44212 -1.41346,0.50617 -3.13254,0.50617 -1.80503,0 -3.17075,-0.78314 -1.35616,-0.79268 -2.10109,-2.2921 -0.73539,-1.49942 -0.75449,-3.52411 v -0.9455 q 0,-2.08199 0.69719,-3.60051 0.70673,-1.52807 2.02469,-2.33031 1.32751,-0.81179 3.10389,-0.81179 2.47356,0 3.86793,1.18426 1.39436,1.1747 1.65223,3.42861 h -2.78873 q -0.19101,-1.19381 -0.84999,-1.74773 -0.64943,-0.55393 -1.79548,-0.55393 -1.46122,0 -2.22526,1.0983 -0.76403,1.0983 -0.77358,3.26625 v 0.88819 q 0,2.18705 0.83089,3.30445 0.83088,1.1174 2.43536,1.1174 1.61402,0 2.30165,-0.68763 v -2.39716 h -2.60727 v -2.11064 h 5.47241 z m 7.46844,-3.3331 h -2.28256 v 5.09038 h -2.86513 v -13.90544 h 5.16679 q 2.46401,0 3.80107,1.0983 1.33706,1.0983 1.33706,3.1039 0,1.42301 -0.62077,2.37805 -0.61123,0.9455 -1.86234,1.50897 l 3.00839,5.68252 v 0.1337 h -3.07524 z m -2.28256,-2.32076 h 2.31121 q 1.0792,0 1.67132,-0.54437 0.59213,-0.55393 0.59213,-1.51852 0,-0.9837 -0.56347,-1.54717 -0.55393,-0.56348 -1.70953,-0.56348 h -2.30166 z m 21.03962,0.77359 q 0,2.05334 -0.72584,3.60051 -0.72583,1.54717 -2.08199,2.38761 -1.34661,0.84044 -3.09434,0.84044 -1.72863,0 -3.0848,-0.83089 -1.35616,-0.83089 -2.10109,-2.36851 -0.74494,-1.54717 -0.75449,-3.55276 v -0.68763 q 0,-2.05335 0.73539,-3.61007 0.74493,-1.56627 2.09154,-2.39716 1.35616,-0.84044 3.09434,-0.84044 1.73818,0 3.0848,0.84044 1.35616,0.83089 2.09154,2.39716 0.74494,1.55672 0.74494,3.60052 z m -2.90334,-0.63033 q 0,-2.18705 -0.78313,-3.32356 -0.78314,-1.1365 -2.23481,-1.1365 -1.44211,0 -2.22525,1.12695 -0.78313,1.11741 -0.79268,3.28536 v 0.67808 q 0,2.12974 0.78313,3.30445 0.78314,1.1747 2.25391,1.1747 1.44211,0 2.2157,-1.12695 0.77358,-1.1365 0.78313,-3.30445 z m 15.50992,-6.63756 v 9.15887 q 0,2.28256 -1.43256,3.61007 -1.42302,1.32751 -3.89658,1.32751 -2.43537,0 -3.86793,-1.28931 -1.43257,-1.28931 -1.46122,-3.54321 v -9.26393 h 2.86513 v 9.17797 q 0,1.36572 0.64943,1.99605 0.65898,0.62077 1.81459,0.62077 2.41626,0 2.45446,-2.54041 v -9.25438 z m 5.21454,9.00607 v 4.89937 h -2.86513 v -13.90544 h 5.42465 q 1.56627,0 2.75053,0.57303 1.1938,0.57303 1.83368,1.63312 0.63988,1.05055 0.63988,2.39716 0,2.0438 -1.40391,3.22805 -1.39437,1.17471 -3.86793,1.17471 z m 0,-2.32076 h 2.55952 q 1.1365,0 1.72863,-0.53482 0.60168,-0.53483 0.60168,-1.52808 0,-1.02189 -0.60168,-1.65222 -0.60168,-0.63033 -1.66178,-0.64943 h -2.62637 z"
       id="text5"
       aria-label="READING GROUP" /></g></svg>
