<?xml version="1.0" encoding="UTF-8" standalone="no"?>
<!-- Created with Inkscape (http://www.inkscape.org/) -->

<svg
   width="228.07085mm"
   height="121.97293mm"
   viewBox="0 0 228.07084 121.97293"
   version="1.1"
   id="svg1"
   xml:space="preserve"
   inkscape:version="1.3 (0e150ed6c4, 2023-07-21)"
   sodipodi:docname="BEEcon_logo_white.svg"
   inkscape:export-filename="studio.png"
   inkscape:export-xdpi="96"
   inkscape:export-ydpi="96"
   xmlns:inkscape="http://www.inkscape.org/namespaces/inkscape"
   xmlns:sodipodi="http://sodipodi.sourceforge.net/DTD/sodipodi-0.dtd"
   xmlns="http://www.w3.org/2000/svg"
   xmlns:svg="http://www.w3.org/2000/svg"><sodipodi:namedview
     id="namedview1"
     pagecolor="#ffffff"
     bordercolor="#000000"
     borderopacity="0.25"
     inkscape:showpageshadow="2"
     inkscape:pageopacity="0.0"
     inkscape:pagecheckerboard="true"
     inkscape:deskcolor="#d1d1d1"
     inkscape:document-units="mm"
     inkscape:zoom="1.4142136"
     inkscape:cx="469.16534"
     inkscape:cy="196.22213"
     inkscape:window-width="1920"
     inkscape:window-height="1094"
     inkscape:window-x="-11"
     inkscape:window-y="-11"
     inkscape:window-maximized="1"
     inkscape:current-layer="layer1"
     inkscape:export-bgcolor="#ffffff00" /><defs
     id="defs1" /><g
     inkscape:groupmode="layer"
     id="layer2"
     inkscape:label="Livello 2" /><g
     inkscape:label="Livello 1"
     inkscape:groupmode="layer"
     id="layer1"
     transform="translate(0.26458326)"><path
       d="M 66.22041,69.11893 C 64.339014,69.942177 61.953419,69.819262 59.617108,68.866846 58.525385,68.421857 57.442244,67.795508 56.428025,67.002069 55.438248,66.225845 54.545183,65.32125 53.783653,64.309707 53.665116,64.149242 53.40891,63.784211 53.025255,63.094525 52.366079,61.940769 51.582729,60.343477 50.790443,58.54247 L 50.494609,57.853113 C 50.223653,57.221467 49.960041,56.5896 49.719444,55.98243 47.447932,50.301228 45.985101,44.918223 45.652626,41.064992 c -0.022,-0.221164 -0.03708,-0.439493 -0.04776,-0.648772 -0.07704,-1.344863 -0.0037,-2.476744 0.224614,-3.361501 0.006,-0.01371 0.01496,-0.02623 0.02034,-0.03936 l 10e-4,-0.0036 c 0.120844,-0.492114 0.498642,-1.223138 0.498642,-1.223138 10e-4,-0.0036 10e-4,-0.0036 10e-4,-0.0036 0.263603,-0.381456 0.590323,-0.612942 1.038433,-0.738466 0.165809,-0.04457 1.122024,-0.199332 3.467722,1.36928 1.690146,1.130287 3.222068,2.207386 4.655515,3.28064 0.208047,0.156602 0.413323,0.312086 0.618325,0.468267 9.977359,7.620341 14.753388,14.939689 14.190063,21.74447 -0.300103,3.675242 -1.720645,6.168425 -4.100716,7.20954 z m -24.562148,1.813331 c -3.584734,-0.01148 -7.331344,-0.765909 -10.900488,-2.220826 l -0.03489,-0.01256 -0.03473,-0.01256 c -3.56894,-1.455278 -6.775201,-3.5352 -9.346361,-6.033131 0.08335,-1.580405 0.38743,-3.191062 0.89685,-4.774484 2.865962,2.678605 6.343356,4.88923 10.21821,6.468794 l 0.03477,0.01256 0.03486,0.01256 c 3.87493,1.5796 7.906705,2.430049 11.828074,2.518251 -0.742312,1.488473 -1.65099,2.852669 -2.69613,4.041011 z m -6.395974,4.446495 c -0.988574,0.370731 -1.994634,0.65768 -2.969441,0.937209 -1.848357,0.524487 -3.745414,1.069456 -5.557989,2.165216 -0.530157,-2.050765 -1.505156,-3.766513 -2.460014,-5.433717 -0.501977,-0.881525 -1.02092,-1.790142 -1.468363,-2.746256 -0.260271,-0.550633 -0.485167,-1.119126 -0.679295,-1.694443 2.13859,1.524485 4.506627,2.830272 7.021218,3.855334 l 0.03472,0.01256 0.03489,0.01256 c 2.514098,1.024866 5.120233,1.746777 7.715146,2.151839 -0.540831,0.275801 -1.099091,0.525049 -1.670271,0.73675 z M 24.167648,47.12107 23.47417,47.40716 c -1.825463,0.733902 -3.502051,1.328408 -4.780191,1.692432 -0.756551,0.224889 -1.19459,0.306916 -1.391879,0.338637 -1.251476,0.19094 -2.522587,0.21333 -3.772675,0.07648 -1.280228,-0.141875 -2.492208,-0.451168 -3.5845377,-0.896458 -2.33589,-0.952204 -4.127549,-2.532129 -4.897639,-4.436247 -0.973297,-2.408093 -0.24631,-5.184006 2.108356,-8.021713 4.3550997,-5.259085 12.8870017,-7.153533 25.3482567,-5.62688 0.255446,0.03184 0.510833,0.06371 0.769481,0.09749 1.77512,0.234641 3.623453,0.535604 5.622358,0.909073 2.773317,0.518206 3.349016,1.297467 3.436917,1.445404 0.232303,0.402888 0.304078,0.796821 0.225945,1.253881 0,0 0,0 -0.001,0.0036 0,0 -0.240666,0.786931 -0.498641,1.223129 l -10e-4,0.0036 c -0.0059,0.01306 -0.0083,0.02823 -0.01399,0.04204 -0.455193,0.792279 -1.19448,1.652693 -2.189579,2.560502 -0.154024,0.142148 -0.317509,0.287679 -0.48791,0.430393 -2.931227,2.522806 -7.74072,5.348948 -13.336197,7.823202 -0.597136,0.265678 -1.226946,0.533347 -1.862566,0.795436 z m 22.262369,11.602815 0.113289,0.262399 0.0036,0.0036 c -0.109862,1.292856 -0.330248,2.569724 -0.657029,3.814529 -3.863318,0.131543 -7.92319,-0.622288 -11.821639,-2.21144 l -0.03495,-0.01256 -0.03475,-0.01256 c -3.899086,-1.589703 -7.328382,-3.888818 -9.99879,-6.683762 0.636315,-1.118617 1.37169,-2.18554 2.196539,-3.18696 l 0.0036,-0.0036 0.264515,-0.108383 c 2.679198,2.301546 5.866125,4.242078 9.301252,5.642388 l 0.03475,0.01256 0.03497,0.01256 c 3.434919,1.400272 7.070512,2.240915 10.594737,2.468156 z M 44.777003,54.45659 c -2.480226,-0.334122 -4.993784,-0.998146 -7.401344,-1.979592 l -0.03488,-0.01256 -0.03473,-0.01256 c -2.408021,-0.981711 -4.669388,-2.264169 -6.675953,-3.75903 3.402281,-1.653882 7.719136,-4.028142 11.005251,-6.762868 0.437512,4.252641 1.864211,8.968234 3.141041,12.529526 z m 29.613544,7.789349 c 0.675321,-8.201674 -4.523908,-16.634262 -15.454008,-25.07218 1.101639,-1.129005 1.995576,-2.466936 2.617427,-3.992418 1.379345,-3.38374 1.148602,-7.055102 -0.327828,-10.300831 3.350076,-2.872436 7.09834,-3.655938 11.150901,-2.316156 1.166058,0.383333 2.425362,-0.249739 2.809859,-1.41857 0.386847,-1.16463 -0.248421,-2.416751 -1.415106,-2.808439 C 67.571655,14.290737 62.473619,16.17471 58.774015,19.116838 57.179976,17.317362 55.116797,15.823627 52.681556,14.830911 50.245975,13.83806 47.726627,13.463768 45.328901,13.635979 44.74096,8.9460451 42.412499,4.0347061 36.548469,1.1634111 c -1.107696,-0.535444 -2.437324,-0.08427 -2.975097,1.018801 -0.542437,1.104445 -0.08438,2.437629 1.017127,2.978613 3.834413,1.875312 5.966969,5.0560949 6.354219,9.4520359 -3.325372,1.288288 -6.056439,3.752296 -7.435799,7.136032 -0.621863,1.525473 -0.918159,3.107035 -0.920015,4.68435 -13.714056,-1.608148 -23.3270267,0.786332 -28.5780247,7.122759 -3.32000397,4.00695 -4.29618597,8.327937 -2.74447,12.156998 1.194938,2.955084 3.765381,5.317186 7.111204,6.681092 1.439342,0.586745 3.0225297,0.987679 4.7009137,1.174894 1.604609,0.181325 3.232556,0.147882 4.839289,-0.09834 0.5296,-0.08101 1.171888,-0.231443 1.913984,-0.450138 -0.04505,0.09056 -0.09438,0.1826 -0.139059,0.272493 -1.599657,3.265697 -2.44932,6.784682 -2.458582,10.178313 -0.0088,3.008957 0.623409,5.89037 1.876505,8.565011 0.515651,1.103318 1.080501,2.086318 1.622413,3.036562 1.103439,1.931879 2.05815,3.599024 2.271433,5.640813 0.108404,1.109984 0.80355,2.058147 1.812078,2.473298 1.011646,0.407851 2.171604,0.216385 3.02497,-0.501497 1.579938,-1.310796 3.427609,-1.83556 5.56733,-2.445383 1.051936,-0.300529 2.143176,-0.608429 3.2828,-1.036984 2.766145,-1.036215 5.232272,-2.654602 7.329996,-4.81203 2.365767,-2.433015 4.218504,-5.543096 5.357619,-8.996529 0.02991,-0.0958 0.06022,-0.195687 0.09172,-0.291804 0.377504,0.675083 0.73151,1.231656 1.05389,1.659973 0.976626,1.299307 2.117315,2.461367 3.391049,3.453384 1.331011,1.03957 2.74336,1.859765 4.182365,2.446368 3.346367,1.36412 6.8353,1.472069 9.755492,0.194546 3.786439,-1.652994 6.109114,-5.42508 6.536945,-10.611012"
       style="opacity:1;fill:#f7f7f7;fill-opacity:1;fill-rule:nonzero;stroke:none;stroke-width:0.00747101;image-rendering:auto"
       id="path12" /><text
       xml:space="preserve"
       style="font-size:56.4444px;opacity:1;fill:#161613;fill-opacity:1;stroke-width:0.264583"
       x="36.61961"
       y="99.366211"
       id="text2"><tspan
         sodipodi:role="line"
         id="tspan2"
         style="font-style:normal;font-variant:normal;font-weight:bold;font-stretch:normal;font-size:56.4444px;font-family:Roboto;-inkscape-font-specification:'Roboto Bold';stroke-width:0.264583"
         x="36.61961"
         y="99.366211"><tspan
           style="font-size:56.4444px;opacity:0.9;fill:#d1a900;fill-opacity:0.647173"
           id="tspan3">BEE</tspan><tspan
           style="fill:#f7f7f7;fill-opacity:1"
           id="tspan8">con</tspan></tspan></text><text
       xml:space="preserve"
       style="font-style:normal;font-variant:normal;font-weight:bold;font-stretch:normal;font-size:19.5593px;font-family:Roboto;-inkscape-font-specification:'Roboto Bold';opacity:1;fill:#161613;fill-opacity:1;stroke-width:0.203743"
       x="74.994476"
       y="119.73802"
       id="text5"><tspan
         sodipodi:role="line"
         id="tspan5"
         style="fill:#f7f7f7;fill-opacity:1;stroke-width:0.203743"
         x="74.994476"
         y="119.73802">READING GROUP</tspan></text></g></svg>
