<?xml version="1.0" encoding="UTF-8" standalone="no"?>
<!-- Created with Inkscape (http://www.inkscape.org/) -->

<svg
   xmlns:osb="http://www.openswatchbook.org/uri/2009/osb"
   xmlns:dc="http://purl.org/dc/elements/1.1/"
   xmlns:cc="http://creativecommons.org/ns#"
   xmlns:rdf="http://www.w3.org/1999/02/22-rdf-syntax-ns#"
   xmlns:svg="http://www.w3.org/2000/svg"
   xmlns="http://www.w3.org/2000/svg"
   xmlns:xlink="http://www.w3.org/1999/xlink"
   xmlns:sodipodi="http://sodipodi.sourceforge.net/DTD/sodipodi-0.dtd"
   xmlns:inkscape="http://www.inkscape.org/namespaces/inkscape"
   width="210mm"
   height="297mm"
   id="svg3049"
   version="1.1"
   inkscape:version="0.48.2 r9819"
   sodipodi:docname="studio.png">
  <defs
     id="defs3">
    <linearGradient
       inkscape:collect="always"
       id="linearGradient3844">
      <stop
         style="stop-color:#000000;stop-opacity:1;"
         offset="0"
         id="stop3846" />
      <stop
         style="stop-color:#000000;stop-opacity:0;"
         offset="1"
         id="stop3848" />
    </linearGradient>
    <inkscape:path-effect
       effect="spiro"
       id="path-effect6042"
       is_visible="true" />
    <inkscape:path-effect
       effect="spiro"
       id="path-effect6038"
       is_visible="true" />
    <inkscape:path-effect
       effect="spiro"
       id="path-effect5930"
       is_visible="true" />
    <inkscape:path-effect
       effect="spiro"
       id="path-effect5926"
       is_visible="true" />
    <linearGradient
       id="linearGradient5908"
       osb:paint="gradient">
      <stop
         style="stop-color:#000000;stop-opacity:1;"
         offset="0"
         id="stop5910" />
      <stop
         style="stop-color:#000000;stop-opacity:0;"
         offset="1"
         id="stop5912" />
    </linearGradient>
    <linearGradient
       inkscape:collect="always"
       id="linearGradient5898">
      <stop
         style="stop-color:#000000;stop-opacity:1;"
         offset="0"
         id="stop5900" />
      <stop
         style="stop-color:#000000;stop-opacity:0;"
         offset="1"
         id="stop5902" />
    </linearGradient>
    <inkscape:path-effect
       effect="spiro"
       id="path-effect5840"
       is_visible="true" />
    <inkscape:path-effect
       effect="spiro"
       id="path-effect5785"
       is_visible="true" />
    <inkscape:path-effect
       effect="spiro"
       id="path-effect3147"
       is_visible="true" />
    <inkscape:path-effect
       effect="spiro"
       id="path-effect3143"
       is_visible="true" />
    <inkscape:path-effect
       effect="spiro"
       id="path-effect4132"
       is_visible="true" />
    <inkscape:path-effect
       effect="spiro"
       id="path-effect4128"
       is_visible="true" />
    <inkscape:path-effect
       effect="spiro"
       id="path-effect4124"
       is_visible="true" />
    <inkscape:path-effect
       effect="spiro"
       id="path-effect4120"
       is_visible="true" />
    <inkscape:path-effect
       effect="spiro"
       id="path-effect4116"
       is_visible="true" />
    <inkscape:path-effect
       effect="spiro"
       id="path-effect4112"
       is_visible="true" />
    <inkscape:path-effect
       effect="spiro"
       id="path-effect4108"
       is_visible="true" />
    <inkscape:path-effect
       effect="spiro"
       id="path-effect4104"
       is_visible="true" />
    <inkscape:path-effect
       effect="spiro"
       id="path-effect4100"
       is_visible="true" />
    <inkscape:path-effect
       effect="spiro"
       id="path-effect4088"
       is_visible="true" />
    <inkscape:path-effect
       effect="spiro"
       id="path-effect4084"
       is_visible="true" />
    <inkscape:path-effect
       effect="spiro"
       id="path-effect4080"
       is_visible="true" />
    <inkscape:path-effect
       effect="spiro"
       id="path-effect4076"
       is_visible="true" />
    <inkscape:path-effect
       effect="spiro"
       id="path-effect4072"
       is_visible="true" />
    <inkscape:path-effect
       effect="spiro"
       id="path-effect4068"
       is_visible="true" />
    <inkscape:path-effect
       effect="spiro"
       id="path-effect4064"
       is_visible="true" />
    <inkscape:path-effect
       effect="spiro"
       id="path-effect4060"
       is_visible="true" />
    <inkscape:path-effect
       effect="spiro"
       id="path-effect3993"
       is_visible="true" />
    <inkscape:path-effect
       effect="spiro"
       id="path-effect3989"
       is_visible="true" />
    <inkscape:path-effect
       effect="spiro"
       id="path-effect3975"
       is_visible="true" />
    <inkscape:path-effect
       effect="spiro"
       id="path-effect3971"
       is_visible="true" />
    <inkscape:path-effect
       effect="spiro"
       id="path-effect3161"
       is_visible="true" />
    <inkscape:path-effect
       effect="spiro"
       id="path-effect3157"
       is_visible="true" />
    <inkscape:path-effect
       effect="spiro"
       id="path-effect3153"
       is_visible="true" />
    <inkscape:path-effect
       effect="spiro"
       id="path-effect3149"
       is_visible="true" />
    <inkscape:path-effect
       effect="spiro"
       id="path-effect3145"
       is_visible="true" />
    <inkscape:path-effect
       effect="spiro"
       id="path-effect3141"
       is_visible="true" />
    <inkscape:path-effect
       effect="spiro"
       id="path-effect3989-1"
       is_visible="true" />
    <inkscape:path-effect
       effect="spiro"
       id="path-effect3989-1-4"
       is_visible="true" />
    <inkscape:path-effect
       effect="spiro"
       id="path-effect3989-1-4-1"
       is_visible="true" />
    <inkscape:path-effect
       effect="spiro"
       id="path-effect4084-5"
       is_visible="true" />
    <inkscape:path-effect
       effect="spiro"
       id="path-effect4084-5-5"
       is_visible="true" />
    <linearGradient
       inkscape:collect="always"
       xlink:href="#linearGradient5898"
       id="linearGradient5904"
       x1="64.406784"
       y1="379.48082"
       x2="640.67796"
       y2="379.48082"
       gradientUnits="userSpaceOnUse" />
    <linearGradient
       inkscape:collect="always"
       xlink:href="#linearGradient5908"
       id="linearGradient5918"
       x1="64.406784"
       y1="379.48082"
       x2="640.67796"
       y2="379.48082"
       gradientUnits="userSpaceOnUse" />
    <radialGradient
       inkscape:collect="always"
       xlink:href="#linearGradient3844"
       id="radialGradient3852"
       cx="355.02094"
       cy="630.57507"
       fx="355.02094"
       fy="630.57507"
       r="248.09375"
       gradientTransform="matrix(1,0,0,0.14353193,0,540.06742)"
       gradientUnits="userSpaceOnUse" />
  </defs>
  <sodipodi:namedview
     inkscape:document-units="mm"
     id="base"
     pagecolor="#0E1117"
     bordercolor="#666666"
     borderopacity="1.0"
     inkscape:pageopacity="0.0"
     inkscape:pageshadow="2"
     inkscape:zoom="0.87"
     inkscape:cx="99.750509"
     inkscape:cy="702.44118"
     inkscape:current-layer="layer1"
     showgrid="true"
     inkscape:window-width="1918"
     inkscape:window-height="886"
     inkscape:window-x="0"
     inkscape:window-y="30"
     inkscape:window-maximized="0"
     inkscape:snap-global="false">
    <inkscape:grid
       type="xygrid"
       id="grid3114" />
  </sodipodi:namedview>
  <metadata
     id="metadata4">
    <rdf:RDF>
      <cc:Work
         rdf:about="">
        <dc:format>image/svg+xml</dc:format>
        <dc:type
           rdf:resource="http://purl.org/dc/dcmitype/StillImage" />
        <dc:title></dc:title>
      </cc:Work>
    </rdf:RDF>
  </metadata>
  <g
     inkscape:label="Layer 1"
     inkscape:groupmode="layer"
     id="layer1">
    <rect
       style="fill:#0E1117;fill-opacity:1;stroke:#0E1117;stroke-width:2.5;stroke-linecap:butt;stroke-linejoin:miter;stroke-miterlimit:4;stroke-opacity:1;stroke-dasharray:none;stroke-dashoffset:0"
       id="rect3135"
       width="354.33072"
       height="354.33072"
       x="180.19774"
       y="209.00574" />
    <g
       transform="translate(13.582698,387.1473)"
       id="layer8"
       style="fill:none;fill-opacity:1">
      <rect
         width="460.30148"
         height="376.85165"
         x="159.1237"
         y="213.93192"
         id="rect1334"
         style="fill:none;fill-opacity:1;fill-rule:evenodd;stroke:none" />
    </g>
    <g
       transform="translate(13.582698,387.1473)"
       id="layer3" />
    <path
       sodipodi:type="arc"
       style="fill:none;stroke:#FFFFFF;stroke-width:2.5;stroke-linecap:butt;stroke-linejoin:miter;stroke-miterlimit:4;stroke-opacity:1;stroke-dasharray:none;stroke-dashoffset:0"
       id="path3137"
       sodipodi:cx="362.5"
       sodipodi:cy="834.86218"
       sodipodi:rx="177.5"
       sodipodi:ry="177.5"
       d="m 365.59514,657.38917 a 177.5,177.5 0 1 1 -0.42551,-0.007"
       sodipodi:start="4.7298273"
       sodipodi:end="11.010615"
       transform="translate(-4.8022602,-448.35644)"
       sodipodi:open="true" />
    <path
       style="fill:none;stroke:#FFFFFF;stroke-width:2.5;stroke-linecap:butt;stroke-linejoin:miter;stroke-opacity:1;stroke-miterlimit:4;stroke-dasharray:none"
       d="m 180.41477,209.28276 302.179,302.68089"
       id="path3139"
       inkscape:path-effect="#path-effect3141"
       inkscape:original-d="m 180.41477,209.28276 302.179,302.68089"
       inkscape:connector-curvature="0"
       sodipodi:nodetypes="cc" />
    <path
       style="fill:none;stroke:#ffffff;stroke-width:2.5;stroke-linecap:butt;stroke-linejoin:miter;stroke-opacity:1;stroke-miterlimit:4;stroke-dasharray:none"
       d="M 489.99978,252.3624 180.00022,562.80055"
       id="path3143"
       inkscape:path-effect="#path-effect3145"
       inkscape:original-d="M 489.99978,252.3624 180.00022,562.80055"
       inkscape:connector-curvature="0"
       sodipodi:nodetypes="cc" />
    <path
       style="fill:none;stroke:#ffffff;stroke-width:2.5;stroke-linecap:butt;stroke-linejoin:miter;stroke-opacity:1;stroke-miterlimit:4;stroke-dasharray:none"
       d="m 181.59091,384.98368 174.55117,1.03555"
       id="path3151"
       inkscape:path-effect="#path-effect3153"
       inkscape:original-d="m 181.59091,384.98368 174.55117,1.03555"
       inkscape:connector-curvature="0" />
    <path
       style="fill:#b4ecfc;fill-opacity:1;fill-rule:evenodd;stroke:none"
       d="m 334.61695,540.4908 c -1.16342,-0.25859 -2.27779,-0.50811 -3.34924,-0.62959 -2.84953,-0.32305 -5.23195,-0.89066 -7.58916,-1.39511 -17.49408,-3.74378 -22.2991,-5.67519 -35.58685,-12.22073 -13.31126,-6.55712 -30.99391,-19.53802 -37.52372,-25.87675 l -3.39748,-3.29806 7.11851,-7.20169 6.95505,-6.79299 9.45169,8.02256 c 7.07138,6.00217 16.77762,10.40866 24.57349,14.55485 11.1496,5.92985 21.09732,10.88286 33.3696,13.55924 4.8324,1.05386 9.25192,0.31372 14.26162,1.07615 l 12.14785,1.42591 0.57215,10.67766 0.24521,9.77856 -5.46983,-0.20969 c -2.78248,-0.10667 -9.96177,-0.1774 -15.77889,-1.47032 z"
       id="path6002"
       inkscape:connector-curvature="0"
       sodipodi:nodetypes="ssssscccsssscccss" />
    <path
       style="fill:none;stroke:#ffffff;stroke-width:2.5;stroke-linecap:butt;stroke-linejoin:miter;stroke-opacity:1;stroke-miterlimit:4;stroke-dasharray:none"
       d="m 356.54289,208.79297 0.53192,354.78729"
       id="path3155"
       inkscape:path-effect="#path-effect3157"
       inkscape:original-d="m 356.54289,208.79297 0.53192,354.78729"
       inkscape:connector-curvature="0" />
    <path
       style="fill:#b4ecfc;fill-opacity:1;fill-rule:evenodd;stroke:none"
       d="m 254.61975,282.56546 -7.27635,-7.8353 4.85864,-4.94407 c 4.03901,-4.11001 9.01768,-7.16682 13.52971,-10.80129 6.10184,-4.91509 13.25832,-8.57121 20.06131,-12.21219 17.88334,-9.57122 38.09654,-15.17858 57.33627,-16.56041 l 12.53265,-0.6092 0.0604,8.91804 -0.0238,10.64182 -10.26397,0.563 c -4.66488,0.25588 -9.60234,1.08768 -13.82448,1.89091 -8.21848,1.5635 -15.14556,3.72822 -22.01732,6.29698 -14.13751,5.2848 -26.03108,12.20874 -38.77433,22.95932 l -9.68551,8.17098 z"
       id="path5988"
       inkscape:connector-curvature="0"
       sodipodi:nodetypes="ccsssscccsssscc" />
    <path
       style="fill:#b4ecfc;fill-opacity:1;fill-rule:evenodd;stroke:none"
       d="m 285.58458,313.0864 -9.33559,-9.39407 8.7925,-7.46391 c 16.69689,-14.17389 41.19531,-23.81194 61.24449,-25.05694 l 9.33448,-0.57965 0,12.92528 0.0702,13.06564 -8.61613,0.48095 c -4.74953,0.26512 -10.02007,11.70438 -14.85832,13.11203 -11.00876,3.20291 -21.4202,-1.51862 -30.04404,5.3332 -2.94738,2.34175 -6.76901,5.942 -7.46329,6.45673 -0.75471,0.55952 -3.91919,-3.64158 -9.12427,-8.87926 z"
       id="path5992"
       inkscape:connector-curvature="0"
       sodipodi:nodetypes="ccsscccsssssc" />
    <path
       style="fill:#b4ecfc;fill-opacity:1;fill-rule:evenodd;stroke:none"
       d="m 358.05102,337.66004 -0.0488,-39.08634 7.04703,0.39303 c 7.27879,0.40595 18.2339,-5.40881 25.21467,-2.93463 8.07262,2.86116 12.47538,14.03364 18.32257,18.83715 l 6.22641,5.11504 -28.80557,28.58062 -28.10702,28.9798 0.15079,-39.88467 z"
       id="path6012"
       inkscape:connector-curvature="0"
       sodipodi:nodetypes="ccsssccccc" />
    <path
       sodipodi:type="arc"
       style="fill:none;stroke:#ffffff;stroke-width:2.5;stroke-linecap:butt;stroke-linejoin:miter;stroke-miterlimit:4;stroke-opacity:1;stroke-dasharray:none;stroke-dashoffset:0"
       id="path3165"
       sodipodi:cx="362.5"
       sodipodi:cy="834.76959"
       sodipodi:rx="125.46296"
       sodipodi:ry="125.46296"
       d="m 364.68775,709.32571 a 125.46296,125.46296 0 1 1 -0.30077,-0.005"
       sodipodi:start="4.7298273"
       sodipodi:end="11.010615"
       sodipodi:open="true"
       transform="translate(-4.8022602,-448.35644)" />
    <path
       sodipodi:type="arc"
       style="fill:none;stroke:#ffffff;stroke-width:2.5;stroke-linecap:butt;stroke-linejoin:miter;stroke-miterlimit:4;stroke-opacity:1;stroke-dasharray:none;stroke-dashoffset:0"
       id="path3167"
       sodipodi:cx="362.26852"
       sodipodi:cy="834.53809"
       sodipodi:rx="88.65741"
       sodipodi:ry="88.65741"
       d="m 363.81448,745.89416 a 88.65741,88.65741 0 1 1 -0.21254,-0.003"
       sodipodi:start="4.7298273"
       sodipodi:end="11.010615"
       sodipodi:open="true"
       transform="translate(-4.8022602,-448.35644)" />
    <path
       style="fill:#b4ecfc;fill-opacity:1;fill-rule:evenodd;stroke:none"
       d="m 231.24991,493.01237 c -15.23524,-16.94525 -27.9453,-54.46485 -33.61425,-77.95778 -3.70799,-15.36638 3.94013,-7.94388 14.78396,-7.92661 l 9.69212,-7.39271 2.05597,17.81274 c 2.44961,21.22324 38.13559,30.03268 36.06881,51.29491 l -1.26002,12.96251 -6.19728,6.1203 c -3.40851,3.36617 -6.53269,6.1203 -6.94263,6.1203 -0.40994,0 -11.55728,2.33579 -14.58668,-1.03366 z"
       id="path5996"
       inkscape:connector-curvature="0"
       sodipodi:nodetypes="ssscsscsss" />
    <path
       style="fill:#b4ecfc;fill-opacity:1;fill-rule:evenodd;stroke:none"
       d="m 433.22258,284.87034 c -3.80176,-3.15241 -7.8457,-5.4431 -11.95614,-7.79549 -5.76735,-3.30062 -11.76226,-6.33606 -18.25033,-8.65348 -7.02708,-2.50994 -13.80347,-4.45818 -21.11568,-6.09016 -4.33117,-0.96665 -8.89162,-1.54144 -13.86742,-1.79209 l -10.55196,-0.53156 0.0869,-15.20498 0,-15.29183 9.27424,0.46032 c 29.92276,1.48521 59.13275,12.11767 82.55067,29.80553 7.21947,5.45296 14.01245,10.09207 13.61326,11.30797 -0.24037,0.73214 -1.28223,1.50784 -2.23126,2.42539 -1.91209,1.84868 -4.66854,4.27324 -8.28265,8.07772 l -10.23502,10.77415 z"
       id="path6016"
       inkscape:connector-curvature="0"
       sodipodi:nodetypes="ssssscccssssscs" />
    <path
       sodipodi:type="arc"
       style="fill:none;stroke:#00004f;stroke-width:42.51968504;stroke-linecap:butt;stroke-linejoin:miter;stroke-miterlimit:4;stroke-opacity:1;stroke-dasharray:none;stroke-dashoffset:0"
       id="path3963"
       sodipodi:cx="361.96808"
       sodipodi:cy="834.2771"
       sodipodi:rx="177.92554"
       sodipodi:ry="177.65958"
       d="m 487.87676,959.80514 a 177.92554,177.65958 0 1 1 -0.005,-251.061"
       sodipodi:start="0.78463226"
       sodipodi:end="5.4985139"
       sodipodi:open="true"
       transform="translate(-4.8022602,-448.35644)" />
    <path
       style="fill:#b4ecfc;fill-opacity:1;fill-rule:evenodd;stroke:none"
       d="m 412.6813,315.18991 c -3.78307,-3.21077 -9.63829,-6.59597 -15.41272,-9.2638 -9.54193,-4.40844 -23.33331,-8.65828 -29.95347,-8.92881 l -9.41272,-0.38466 0.0998,-17.09605 -0.39917,-17.49522 10.33686,0.42497 c 8.1882,0.33664 16.91295,2.19536 26.92651,5.26291 15.47857,4.7417 31.96249,13.47929 41.7425,22.41937 l 4.06489,3.71579 -12.70693,12.50204 -11.70902,12.10286 -0.48295,-0.96414 z"
       id="path6014"
       inkscape:connector-curvature="0"
       sodipodi:nodetypes="csscccsssccccc" />
    <path
       style="fill:#b4ecfc;fill-opacity:1;fill-rule:evenodd;stroke:none"
       d="m 202.20418,363.29416 c 0.005,-4.15924 5.70192,-25.69965 9.70858,-35.79707 6.18416,-15.58507 14.89833,-32.10405 29.00529,-46.15488 l 4.79524,-4.89884 6.99286,6.84667 6.86921,6.97033 -5.88037,6.14372 c -6.1926,6.46994 -13.13673,17.07693 -17.14169,24.75383 -2.51575,4.8223 -3.90683,8.06984 -6.06211,13.39996 -2.70817,6.69746 -5.97867,15.53772 -6.91699,21.9689 l -1.16181,7.96289 -9.98195,-0.24732 c -8.78649,-0.2177 -10.22911,1.60052 -10.22626,-0.94819 z"
       id="path5990"
       inkscape:connector-curvature="0"
       sodipodi:nodetypes="csscccsssscsc" />
    <path
       style="fill:#b4ecfc;fill-opacity:1;fill-rule:evenodd;stroke:none"
       d="m 358.00218,432.53407 -0.12438,-39.03767 27.9627,28.13188 27.3408,27.38563 -4.04362,3.49251 c -1.20854,1.04383 -3.13949,2.2275 -4.39163,3.11729 -2.98345,2.12007 -4.36686,3.48342 -8.82254,5.38194 -0.79902,0.34046 -3.17377,1.4891 -3.67471,1.71685 -3.3693,1.53184 -0.8681,0.16918 -2.30167,0.87773 -2.10336,1.03958 -4.55903,1.73723 -6.52235,2.44755 -5.76653,2.08629 -13.24648,3.60819 -19.04621,3.98751 l -6.37639,0.41704 z"
       id="path6030"
       inkscape:connector-curvature="0"
       sodipodi:nodetypes="ccccssssssscc" />
    <path
       style="fill:#b4ecfc;fill-opacity:1;fill-rule:evenodd;stroke:none"
       d="m 358.00218,491.3675 c 0,-4.98918 -0.83837,-7.44261 0.27202,-8.79959 0.20898,-0.25539 -0.45111,-0.65828 -0.13545,-0.84472 1.39403,-0.82336 4.75449,-0.8381 8.27142,-0.8381 1.56883,0 5.00703,-0.6453 6.26955,-0.91864 1.66097,-0.35961 3.8789,-0.55786 6.53892,-1.25609 11.34215,-2.97722 24.8176,-8.75231 33.74261,-15.51298 3.4519,-2.61479 7.58077,-6.13698 8.08108,-6.13698 0.50032,0 4.10037,3.79131 7.5871,7.1893 l 6.58898,6.42129 -5.54239,4.64877 c -12.83456,10.76521 -28.05748,17.37531 -42.13069,21.49356 -6.44654,1.88646 -19.56596,3.78221 -26.53125,3.60574 l -3.0119,-0.0763 z"
       id="path6032"
       inkscape:connector-curvature="0"
       sodipodi:nodetypes="ssssssssscssscs" />
    <path
       style="fill:#b4ecfc;fill-opacity:1;fill-rule:evenodd;stroke:none"
       d="m 358.00218,532.32474 0,-9.35566 9.80964,-0.81809 c 27.90421,-2.32712 53.98741,-12.54634 74.93771,-29.36007 l 7.43858,-6.90095 6.47586,7.40696 7.59317,6.66208 -5.46209,4.72894 c -3.04036,2.63227 -5.50184,4.28095 -8.52905,6.56281 -6.74293,5.08269 -14.30952,9.48791 -21.8035,13.6477 -10.32318,5.73025 -22.384,10.01579 -33.52652,12.79585 -9.7809,2.44033 -26.19599,3.98609 -32.95514,3.98609 l -3.97866,0 z"
       id="path6034"
       inkscape:connector-curvature="0"
       sodipodi:nodetypes="ccsscccssssscc" />
    <path
       sodipodi:type="arc"
       style="fill:none;stroke:#000050;stroke-width:21.25984251999999941;stroke-linecap:butt;stroke-linejoin:miter;stroke-miterlimit:4;stroke-opacity:1;stroke-dasharray:none;stroke-dashoffset:0"
       id="path3965"
       sodipodi:cx="362.23404"
       sodipodi:cy="834.01111"
       sodipodi:rx="126.06383"
       sodipodi:ry="125.79787"
       d="M 450.52785,923.80067 A 126.06383,125.79787 0 1 1 362.06831,708.21335"
       sodipodi:start="0.79485296"
       sodipodi:end="4.7110743"
       sodipodi:open="true"
       transform="translate(-4.8022602,-448.35644)" />
    <path
       style="fill:#b4ecfc;fill-opacity:1;fill-rule:evenodd;stroke:none"
       d="m 324.35371,351.82055 c -15.5138,-15.52391 -28.09091,-27.64964 -28.09091,-28.08033 0,-1.42282 15.32644,-12.9427 22.24672,-16.43605 7.46145,-3.76653 19.70952,-7.58928 29.50537,-8.14745 l 7.64406,-0.79018 0,39.71867 c 0,15.39602 0.7529,31.24304 0.20161,38.46187 -0.24692,3.23331 -1.25547,5.7788 -2.3308,4.05982 -0.53303,0.32944 -12.27021,-11.52239 -27.78401,-27.04629 z"
       id="path6010"
       inkscape:connector-curvature="0"
       sodipodi:nodetypes="cssscssccc" />
    <path
       style="fill:#b4ecfc;fill-opacity:1;fill-rule:evenodd;stroke:none"
       d="m 245.71841,357.55073 c 1.91513,-7.75283 5.87214,-18.46747 10.30129,-26.67883 4.62365,-8.57194 16.06345,-23.39335 18.70656,-25.02685 0.71161,-0.43979 -3.2932,-4.63786 9.95552,9.346 l 4.45723,4.70455 -7.51559,9.17005 c -6.88277,8.39792 -11.55886,18.0011 -14.3252,26.99292 l -2.45572,7.9822 -10.00867,-0.24732 -10.62697,-0.12366 z"
       id="path5994"
       inkscape:connector-curvature="0"
       sodipodi:nodetypes="sssscsscccs" />
    <path
       style="fill:#b4ecfc;fill-opacity:1;fill-rule:evenodd;stroke:none"
       d="m 269.83592,460.60952 c -1.28831,-1.54195 -2.36389,-3.15148 -3.56006,-4.67094 -8.78657,-11.16136 -14.7862,-22.60759 -19.11863,-36.34831 -1.71439,-5.43734 -3.03403,-12.13809 -3.03403,-12.75925 0,-0.62116 4.83981,-0.6126 10.02363,-0.29901 l 10.02365,0 1.96992,7.52367 c 0.56918,2.17385 1.41714,4.28659 2.39574,6.56818 1.37502,3.20583 2.54808,6.46595 4.32172,9.7027 3.86955,7.0616 8.19406,13.90818 12.8049,18.71313 l 3.3323,3.47259 -7.1527,6.73751 -6.73752,7.23575 -3.69119,-4.54741 z"
       id="path5998"
       inkscape:connector-curvature="0"
       sodipodi:nodetypes="csssscssssccccc" />
    <path
       sodipodi:type="arc"
       style="fill:none;stroke:#000050;stroke-width:10.62992125999999971;stroke-linecap:butt;stroke-linejoin:miter;stroke-miterlimit:4;stroke-opacity:1;stroke-dasharray:none;stroke-dashoffset:0"
       id="path3967"
       sodipodi:cx="361.96808"
       sodipodi:cy="834.80902"
       sodipodi:rx="89.627663"
       sodipodi:ry="89.361702"
       d="M 424.90098,898.43632 A 89.627663,89.361702 0 0 1 298.63605,771.57662"
       sodipodi:start="0.79237056"
       sodipodi:end="3.9276895"
       sodipodi:open="true"
       transform="translate(-4.8022602,-448.35644)" />
    <path
       style="fill:none;stroke:#000050;stroke-width:42.21405411;stroke-linecap:butt;stroke-linejoin:miter;stroke-miterlimit:4;stroke-opacity:1;stroke-dasharray:none"
       d="m 162.2479,386.34062 148.86174,-1.87835"
       id="path4082"
       inkscape:path-effect="#path-effect4084"
       inkscape:original-d="m 162.2479,386.34062 148.86174,-1.87835"
       inkscape:connector-curvature="0"
       sodipodi:nodetypes="cc" />
    <path
       style="fill:#b4ecfc;fill-opacity:1;fill-rule:evenodd;stroke:none"
       d="m 311.27092,373.62604 -0.11601,-10.48572 -16.7677,0.34801 -18.15973,0 1.74768,-5.46353 c 2.07495,-6.48663 8.17454,-18.23529 13.14694,-23.64365 l 6.1859,-6.72826 27.32666,27.46181 c 14.80686,14.88008 27.90668,27.74343 27.90668,28.22944 0,0.16024 -0.51714,1.29616 -2.39709,1.65126 -1.27201,0.24026 -3.48241,-0.25433 -5.37377,-0.20463 -3.79164,0.0996 -8.67223,-0.15109 -13.50237,0.017 -6.66573,0.23201 -13.33146,-0.116 -19.99719,0.116 z"
       id="path6008"
       inkscape:connector-curvature="0"
       sodipodi:nodetypes="ccccsscssssscc" />
    <path
       style="fill:none;stroke:#000050;stroke-width:10.62992126;stroke-linecap:butt;stroke-linejoin:miter;stroke-miterlimit:4;stroke-opacity:1;stroke-dasharray:none"
       d="M 356.97011,386.08817 481.54088,260.05983"
       id="path4082-9"
       inkscape:path-effect="#path-effect4084-5"
       inkscape:original-d="M 356.97011,386.08817 481.54088,260.05983"
       inkscape:connector-curvature="0"
       sodipodi:nodetypes="cc" />
    <path
       style="fill:#b4ecfc;fill-opacity:1;fill-rule:evenodd;stroke:none"
       d="m 349.05533,469.93382 c -8.55937,-1.24974 -17.41703,-3.17896 -23.86477,-5.90309 -1.53799,-0.64979 -6.7041,-3.1405 -8.80458,-4.31897 -1.82116,-1.02176 -0.5314,-0.68266 -2.49817,-1.90948 -1.31688,-0.82143 -2.98555,-1.08878 -4.27134,-1.93527 -5.44602,-3.58536 -9.91853,-7.73504 -11.17703,-9.25144 -1.23259,-1.48518 4.62897,-5.09284 27.42228,-28.54892 11.62391,-11.9619 23.7932,-24.34062 28.19519,-27.9548 1.25305,-1.0288 1.3029,0.99787 1.41943,1.06989 0.52588,0.32501 0.37613,18.24357 0.37613,39.81901 0,24.34101 0.97848,33.97822 -0.066,37.54851 -0.19396,0.66299 0.44403,1.11678 0.0682,1.41666 -1.19766,0.95576 -4.19429,0.34825 -6.79934,-0.0321 z"
       id="path6004"
       inkscape:connector-curvature="0"
       sodipodi:nodetypes="sssssssssssss" />
    <path
       style="fill:none;stroke:#000050;stroke-width:10.62992126;stroke-linecap:butt;stroke-linejoin:miter;stroke-miterlimit:4;stroke-opacity:1;stroke-dasharray:none"
       d="M 354.08043,381.95597 483.81019,511.83088"
       id="path4082-9-3"
       inkscape:path-effect="#path-effect4084-5-5"
       inkscape:original-d="M 354.08043,381.95597 483.81019,511.83088"
       inkscape:connector-curvature="0"
       sodipodi:nodetypes="cc" />
    <path
       style="fill:#b4ecfc;fill-opacity:1;fill-rule:evenodd;stroke:none"
       d="m 336.88643,498.92733 c -11.53655,-2.31395 -22.62802,-5.79879 -33.73947,-11.67865 -9.17367,-4.85444 -26.53096,-17.86217 -26.53096,-19.61655 0,-0.41424 3.50684,-4.13859 7.18182,-7.18036 l 6.2866,-6.68299 7.55818,6.67546 c 5.55003,4.90185 14.54614,9.65972 19.66053,12.23984 4.76109,2.4019 11.24497,4.54297 20.58986,6.61835 3.3463,0.74317 3.25731,0.33842 8.52539,1.45231 2.97128,0.62825 3.67247,-0.11742 8.39901,0.47141 0.42958,0.0535 0.84961,-0.20128 1.0432,0.12138 0.76899,1.28171 -0.14492,5.06007 -0.0483,9.84875 l 0.19183,9.50742 -4.18586,-0.23978 c -3.11112,-0.0616 -10.67451,-0.68268 -14.93183,-1.53659 z"
       id="path6000"
       inkscape:connector-curvature="0"
       sodipodi:nodetypes="sssscsssssssccs" />
    <path
       style="fill:#b4ecfc;fill-opacity:1;fill-rule:evenodd;stroke:none"
       d="m 290.714,437.31964 c -6.43926,-8.74286 -10.40834,-14.37013 -13.11835,-23.20468 l -2.35894,-7.69007 4.42554,-0.14268 c 2.02574,-0.0653 9.97822,-0.24605 17.75496,-0.37469 l 14.02546,-0.23201 0.116,-8.71485 -0.116,-10.22289 19.81089,0.116 c 7.21394,0.0422 13.79094,-0.0362 17.67547,0.25326 0.79023,0.0589 2.07421,-0.31992 2.63608,-0.0916 0.79895,0.3247 0.73059,1.28429 0.79444,1.3876 0.32947,0.53309 -12.95397,13.46974 -28.24271,28.74809 l -27.7977,27.77883 -5.60514,-7.61034 z"
       id="path6006"
       inkscape:connector-curvature="0"
       sodipodi:nodetypes="cscsscccsssssccc" />
  </g>
</svg>
